<svg height="1278" width="720" xmlns="http://www.w3.org/2000/svg">
<rect height="1278" fill="#555" width="720"></rect>
<text fill="#7f7" font-family="Courier New" font-size="12" xml:space="preserve">
<tspan x="10" y="26">6 megabytes installed</tspan>
<tspan x="10" y="42"></tspan>
<tspan x="10" y="58">node_modules</tspan>
<tspan x="10" y="74">└─┬ winston-loggly@1.3.1 </tspan>
<tspan x="10" y="90">  └─┬ loggly@1.1.1 </tspan>
<tspan x="10" y="106">    ├── json-stringify-safe@5.0.1 </tspan>
<tspan x="10" y="122">    ├─┬ request@2.75.0 </tspan>
<tspan x="10" y="138">    │ ├── aws-sign2@0.6.0 </tspan>
<tspan x="10" y="154">    │ ├── aws4@1.6.0 </tspan>
<tspan x="10" y="170">    │ ├─┬ bl@1.1.2 </tspan>
<tspan x="10" y="186">    │ │ └─┬ readable-stream@2.0.6 </tspan>
<tspan x="10" y="202">    │ │   ├── core-util-is@1.0.2 </tspan>
<tspan x="10" y="218">    │ │   ├── inherits@2.0.3 </tspan>
<tspan x="10" y="234">    │ │   ├── isarray@1.0.0 </tspan>
<tspan x="10" y="250">    │ │   ├── process-nextick-args@1.0.7 </tspan>
<tspan x="10" y="266">    │ │   ├── string_decoder@0.10.31 </tspan>
<tspan x="10" y="282">    │ │   └── util-deprecate@1.0.2 </tspan>
<tspan x="10" y="298">    │ ├── caseless@0.11.0 </tspan>
<tspan x="10" y="314">    │ ├─┬ combined-stream@1.0.5 </tspan>
<tspan x="10" y="330">    │ │ └── delayed-stream@1.0.0 </tspan>
<tspan x="10" y="346">    │ ├── extend@3.0.0 </tspan>
<tspan x="10" y="362">    │ ├── forever-agent@0.6.1 </tspan>
<tspan x="10" y="378">    │ ├─┬ form-data@2.0.0 </tspan>
<tspan x="10" y="394">    │ │ └── asynckit@0.4.0 </tspan>
<tspan x="10" y="410">    │ ├─┬ har-validator@2.0.6 </tspan>
<tspan x="10" y="426">    │ │ ├─┬ chalk@1.1.3 </tspan>
<tspan x="10" y="442">    │ │ │ ├── ansi-styles@2.2.1 </tspan>
<tspan x="10" y="458">    │ │ │ ├── escape-string-regexp@1.0.5 </tspan>
<tspan x="10" y="474">    │ │ │ ├─┬ has-ansi@2.0.0 </tspan>
<tspan x="10" y="490">    │ │ │ │ └── ansi-regex@2.1.1 </tspan>
<tspan x="10" y="506">    │ │ │ ├── strip-ansi@3.0.1 </tspan>
<tspan x="10" y="522">    │ │ │ └── supports-color@2.0.0 </tspan>
<tspan x="10" y="538">    │ │ ├─┬ commander@2.9.0 </tspan>
<tspan x="10" y="554">    │ │ │ └── graceful-readlink@1.0.1 </tspan>
<tspan x="10" y="570">    │ │ ├─┬ is-my-json-valid@2.16.0 </tspan>
<tspan x="10" y="586">    │ │ │ ├── generate-function@2.0.0 </tspan>
<tspan x="10" y="602">    │ │ │ ├─┬ generate-object-property@1.2.0 </tspan>
<tspan x="10" y="618">    │ │ │ │ └── is-property@1.0.2 </tspan>
<tspan x="10" y="634">    │ │ │ ├── jsonpointer@4.0.1 </tspan>
<tspan x="10" y="650">    │ │ │ └── xtend@4.0.1 </tspan>
<tspan x="10" y="666">    │ │ └─┬ pinkie-promise@2.0.1 </tspan>
<tspan x="10" y="682">    │ │   └── pinkie@2.0.4 </tspan>
<tspan x="10" y="698">    │ ├─┬ hawk@3.1.3 </tspan>
<tspan x="10" y="714">    │ │ ├── boom@2.10.1 </tspan>
<tspan x="10" y="730">    │ │ ├── cryptiles@2.0.5 </tspan>
<tspan x="10" y="746">    │ │ ├── hoek@2.16.3 </tspan>
<tspan x="10" y="762">    │ │ └── sntp@1.0.9 </tspan>
<tspan x="10" y="778">    │ ├─┬ http-signature@1.1.1 </tspan>
<tspan x="10" y="794">    │ │ ├── assert-plus@0.2.0 </tspan>
<tspan x="10" y="810">    │ │ ├─┬ jsprim@1.4.0 </tspan>
<tspan x="10" y="826">    │ │ │ ├── assert-plus@1.0.0 </tspan>
<tspan x="10" y="842">    │ │ │ ├── extsprintf@1.0.2 </tspan>
<tspan x="10" y="858">    │ │ │ ├── json-schema@0.2.3 </tspan>
<tspan x="10" y="874">    │ │ │ └── verror@1.3.6 </tspan>
<tspan x="10" y="890">    │ │ └─┬ sshpk@1.13.0 </tspan>
<tspan x="10" y="906">    │ │   ├── asn1@0.2.3 </tspan>
<tspan x="10" y="922">    │ │   ├── assert-plus@1.0.0 </tspan>
<tspan x="10" y="938">    │ │   ├── bcrypt-pbkdf@1.0.1 </tspan>
<tspan x="10" y="954">    │ │   ├─┬ dashdash@1.14.1 </tspan>
<tspan x="10" y="970">    │ │   │ └── assert-plus@1.0.0 </tspan>
<tspan x="10" y="986">    │ │   ├── ecc-jsbn@0.1.1 </tspan>
<tspan x="10" y="1002">    │ │   ├─┬ getpass@0.1.6 </tspan>
<tspan x="10" y="1018">    │ │   │ └── assert-plus@1.0.0 </tspan>
<tspan x="10" y="1034">    │ │   ├── jodid25519@1.0.2 </tspan>
<tspan x="10" y="1050">    │ │   ├── jsbn@0.1.1 </tspan>
<tspan x="10" y="1066">    │ │   └── tweetnacl@0.14.5 </tspan>
<tspan x="10" y="1082">    │ ├── is-typedarray@1.0.0 </tspan>
<tspan x="10" y="1098">    │ ├── isstream@0.1.2 </tspan>
<tspan x="10" y="1114">    │ ├─┬ mime-types@2.1.15 </tspan>
<tspan x="10" y="1130">    │ │ └── mime-db@1.27.0 </tspan>
<tspan x="10" y="1146">    │ ├── node-uuid@1.4.8 </tspan>
<tspan x="10" y="1162">    │ ├── oauth-sign@0.8.2 </tspan>
<tspan x="10" y="1178">    │ ├── qs@6.2.3 </tspan>
<tspan x="10" y="1194">    │ ├── stringstream@0.0.5 </tspan>
<tspan x="10" y="1210">    │ ├─┬ tough-cookie@2.3.2 </tspan>
<tspan x="10" y="1226">    │ │ └── punycode@1.4.1 </tspan>
<tspan x="10" y="1242">    │ └── tunnel-agent@0.4.3 </tspan>
<tspan x="10" y="1258">    └── timespan@2.3.0</tspan>
</text>
</svg>
